<svg xmlns="http://www.w3.org/2000/svg" xmlns:xlink="http://www.w3.org/1999/xlink" viewBox="0 0 107.37 68.07"><defs><style>.cls-1,.cls-2{stroke:#231f20;stroke-miterlimit:10;stroke-width:0.1px;}.cls-1{fill:url(#Earthtone_30);}.cls-2{fill:url(#Earthtone_30-2);}</style><linearGradient id="Earthtone_30" x1="0.05" y1="34.03" x2="61.16" y2="34.03" gradientUnits="userSpaceOnUse"><stop offset="0" stop-color="#4a6876"/><stop offset="0.54" stop-color="#093542"/><stop offset="1" stop-color="#000315"/></linearGradient><linearGradient id="Earthtone_30-2" x1="43.28" y1="34.4" x2="107.32" y2="34.4" xlink:href="#Earthtone_30"/></defs><title>Logor6</title><g id="Layer_2" data-name="Layer 2"><g id="Layer_2-2" data-name="Layer 2"><path class="cls-1" d="M35.48,1.76a2.51,2.51,0,0,0-4.69-.18C24.21,15.05,6.5,51.19.37,63.69-.58,65.64.69,68,2.68,68h28a2.8,2.8,0,0,0,2.63-2.94l-.13-28.23c.15-.86-9.48,19-12.27,24.73a2.58,2.58,0,0,1-2.34,1.53L12.32,63c-2,0-3.22-2.37-2.28-4.31l20.69-43a2.52,2.52,0,0,1,4.7.15c5.1,12.23,17.5,41.95,20.72,49.57a2.62,2.62,0,0,0,2.56,1.67A3,3,0,0,0,60.9,63C55.23,49.61,41,15.05,35.48,1.76Z"/><path class="cls-2" d="M105.85,41.53c-2-3.81-3.44-5.61-6.58-7.33a2.61,2.61,0,0,1-1.07-3.53,22.43,22.43,0,0,0,2.32-6.79c.48-3.31,0-9.46-3.56-13.85C93.66,6,88,2.88,79.48,3c-9.71.16-23.27,0-33.61.11a2.63,2.63,0,0,0-2.59,2.73l0,.42A2.62,2.62,0,0,0,46,8.81c8.31-.21,33.91-.8,37.09,0,4.25,1.1,6.22,1.93,8.94,4.35,1.24,1.1,3.23,5.68,3,8.5a11.41,11.41,0,0,1-5.34,9.18,2.71,2.71,0,0,1-1.41.43l-28.78.49a2.64,2.64,0,0,0-2.58,2.63v.28a2.63,2.63,0,0,0,2.62,2.63c8,0,31.56,0,32.06,0,2.93-.31,7.69,3.64,9,6a13.39,13.39,0,0,1,.82,9.92c-1.49,4.21-4.11,6.47-7.44,6.68-2.13.13-15.89.4-21.69.5a2.63,2.63,0,0,0-2.57,2.63v.1a2.62,2.62,0,0,0,2.65,2.63c6-.08,20.15-.25,22.47-.2,5.55.1,10.42-7.34,11.36-9.57C107.76,52.27,107.76,45.07,105.85,41.53Z"/></g></g></svg>