<svg xmlns="http://www.w3.org/2000/svg" viewBox="0 0 107.66 68.35"><defs><style>.cls-1{fill:#101820;stroke:#231f20;stroke-miterlimit:10;stroke-width:0.39px;}</style></defs><title>Logor7</title><g id="Layer_2" data-name="Layer 2"><g id="Layer_2-2" data-name="Layer 2"><path class="cls-1" d="M35.62,1.9a2.51,2.51,0,0,0-4.69-.18C24.36,15.19,6.64,51.33.52,63.84c-1,2,.31,4.32,2.3,4.32h28a2.79,2.79,0,0,0,2.63-2.94L33.36,37c.14-.86-9.48,19-12.28,24.73a2.58,2.58,0,0,1-2.34,1.53l-6.28-.08c-2,0-3.21-2.37-2.28-4.31l20.69-43a2.52,2.52,0,0,1,4.7.15c5.1,12.23,17.5,42,20.73,49.57a2.58,2.58,0,0,0,2.55,1.67A2.94,2.94,0,0,0,61,63.09C55.37,49.76,41.1,15.19,35.62,1.9Z"/><path class="cls-1" d="M106,41.67c-2-3.81-3.45-5.6-6.58-7.32a2.62,2.62,0,0,1-1.08-3.53,22.61,22.61,0,0,0,2.33-6.8c.47-3.31,0-9.46-3.57-13.85-3.3-4.06-9-7.14-17.48-7-9.71.16-23.27,0-33.61.12A2.61,2.61,0,0,0,43.43,6v.42A2.62,2.62,0,0,0,46.13,9c8.31-.21,33.91-.8,37.09,0,4.25,1.1,6.22,1.93,9,4.36,1.23,1.09,3.22,5.68,3,8.5A11.41,11.41,0,0,1,89.84,31a2.6,2.6,0,0,1-1.41.43l-28.78.5a2.62,2.62,0,0,0-2.58,2.62v.28a2.62,2.62,0,0,0,2.62,2.63c8,0,31.56,0,32.07,0,2.93-.31,7.68,3.65,8.94,6a13.39,13.39,0,0,1,.82,9.92c-1.49,4.22-4.11,6.48-7.43,6.68-2.14.14-15.9.4-21.7.51a2.61,2.61,0,0,0-2.57,2.62v.11a2.62,2.62,0,0,0,2.66,2.62c6-.07,20.14-.24,22.46-.2,5.56.1,10.42-7.34,11.36-9.56C107.9,52.41,107.9,45.22,106,41.67Z"/></g></g></svg>