<svg xmlns="http://www.w3.org/2000/svg" viewBox="0 0 112.28 69.84"><defs><style>.cls-1{fill:#231f20;stroke:#231f20;stroke-miterlimit:10;}</style></defs><title>Logo3</title><g id="Layer_2" data-name="Layer 2"><g id="Layer_2-2" data-name="Layer 2"><path class="cls-1" d="M68.9,68.2c-4.8-9.76-31-66.83-31-66.83-.08.27-37.07,68-37.07,68H38l-.14-29.59c.18-1-13.78,25-13.78,25l-12.92-.15,26.7-49.76s24.95,53.72,25.1,53.83Z"/><path class="cls-1" d="M110.32,42.85c-2.56-4.77-4.12-6.38-9.31-8.64,1.77-1.47,3.56-6.13,4-9,.47-3.31,0-9.46-3.57-13.85-3.3-4.06-9-7.14-17.48-7-10.58.17-25.71,0-36.29.16l.2,5.7s35.89-1,39.69,0c4.25,1.1,6.22,1.93,8.95,4.36,1.23,1.09,3.22,5.68,3,8.5a11.49,11.49,0,0,1-6,9.59l-32.08.55v5.48s34.08.07,34.69,0c2.93-.3,7.68,3.65,8.94,6a13.39,13.39,0,0,1,.82,9.92c-1.49,4.22-4.11,6.48-7.43,6.68-2.72.17-24.27.55-24.27.55v5.35s22.16-.3,25.12-.24c5.55.1,10.42-7.34,11.36-9.56C112.22,53.59,112.22,46.4,110.32,42.85Z"/></g></g></svg>