<svg xmlns="http://www.w3.org/2000/svg" xmlns:xlink="http://www.w3.org/1999/xlink" viewBox="0 0 108.27 68.97"><defs><style>.cls-1,.cls-2{stroke:#231f20;stroke-miterlimit:10;}.cls-1{fill:url(#linear-gradient);}.cls-2{fill:url(#linear-gradient-2);}</style><linearGradient id="linear-gradient" x1="0.5" y1="34.48" x2="61.61" y2="34.48" gradientUnits="userSpaceOnUse"><stop offset="0.2" stop-color="#000315"/><stop offset="0.45" stop-color="#24250e"/><stop offset="0.77" stop-color="#6c8036"/><stop offset="1" stop-color="#f9ed23"/></linearGradient><linearGradient id="linear-gradient-2" x1="43.73" y1="34.85" x2="107.77" y2="34.85" xlink:href="#linear-gradient"/></defs><title>Logor4</title><g id="Layer_2" data-name="Layer 2"><g id="Layer_2-2" data-name="Layer 2"><path class="cls-1" d="M61.35,63.4C55.68,50.06,41.41,15.5,35.93,2.21A2.51,2.51,0,0,0,31.24,2C24.66,15.5,7,51.64.82,64.14c-.95,2,.32,4.33,2.31,4.33h28a2.8,2.8,0,0,0,2.63-2.94L33.66,37.3c.15-.86-9.48,19-12.27,24.73a2.58,2.58,0,0,1-2.34,1.53l-6.28-.08c-2,0-3.22-2.37-2.28-4.31l20.69-43a2.52,2.52,0,0,1,4.7.15c5.1,12.23,17.5,42,20.72,49.57a2.62,2.62,0,0,0,2.56,1.67h0A3,3,0,0,0,61.35,63.4Z"/><path class="cls-2" d="M106.3,42c-2-3.81-3.44-5.61-6.58-7.33a2.61,2.61,0,0,1-1.07-3.53A22.43,22.43,0,0,0,101,24.33c.48-3.31,0-9.46-3.56-13.85-3.3-4.07-9-7.15-17.48-7-9.71.16-23.27,0-33.61.11a2.63,2.63,0,0,0-2.59,2.73l0,.42a2.62,2.62,0,0,0,2.69,2.53c8.31-.21,33.91-.8,37.09,0,4.25,1.1,6.22,1.93,8.94,4.35,1.24,1.1,3.23,5.68,3,8.5a11.41,11.41,0,0,1-5.34,9.18,2.71,2.71,0,0,1-1.41.43L60,32.23a2.64,2.64,0,0,0-2.58,2.63v.28A2.63,2.63,0,0,0,60,37.77c8,0,31.56,0,32.06,0,2.93-.31,7.69,3.64,9,6a13.39,13.39,0,0,1,.82,9.92c-1.49,4.21-4.11,6.47-7.44,6.68-2.13.13-15.89.4-21.69.5a2.63,2.63,0,0,0-2.57,2.63v.1a2.62,2.62,0,0,0,2.65,2.63c6-.08,20.15-.25,22.47-.2,5.55.1,10.42-7.34,11.36-9.57C108.21,52.72,108.21,45.52,106.3,42Z"/></g></g></svg>