<svg xmlns="http://www.w3.org/2000/svg" viewBox="0 0 107.67 68.38"><defs><style>.cls-1,.cls-2{fill:#f9ed32;stroke:#f9ed32;stroke-miterlimit:10;}.cls-1{stroke-width:0.41px;}.cls-2{stroke-width:0.39px;}</style></defs><title>Logor2</title><g id="Layer_2" data-name="Layer 2"><g id="Layer_2-2" data-name="Layer 2"><path class="cls-1" d="M61.05,63.1C55.38,49.77,41.11,15.2,35.63,1.91a2.51,2.51,0,0,0-4.69-.18C24.37,15.2,6.66,51.35.53,63.85c-1,1.95.31,4.32,2.31,4.32h28a2.79,2.79,0,0,0,2.63-2.94L33.37,37c.14-.86-9.48,19-12.28,24.73a2.56,2.56,0,0,1-2.33,1.53l-6.28-.08c-2,0-3.22-2.37-2.29-4.31l20.69-43a2.52,2.52,0,0,1,4.7.15C40.68,28.26,53.08,58,56.31,65.6a2.58,2.58,0,0,0,2.55,1.67h0A2.94,2.94,0,0,0,61.05,63.1Z"/><path class="cls-2" d="M106,41.68c-2.05-3.81-3.45-5.6-6.58-7.32a2.62,2.62,0,0,1-1.08-3.53,22.61,22.61,0,0,0,2.33-6.8c.47-3.31,0-9.46-3.57-13.85-3.3-4.06-9-7.14-17.48-7-9.71.16-23.27,0-33.61.12A2.62,2.62,0,0,0,43.44,6v.42A2.62,2.62,0,0,0,46.14,9c8.31-.21,33.91-.8,37.09,0,4.25,1.1,6.22,1.93,9,4.36,1.23,1.09,3.23,5.68,3,8.5A11.41,11.41,0,0,1,89.85,31a2.59,2.59,0,0,1-1.4.43l-28.79.5a2.62,2.62,0,0,0-2.58,2.62v.28a2.62,2.62,0,0,0,2.62,2.63c8,0,31.56.05,32.07,0,2.93-.3,7.68,3.65,8.94,6a13.39,13.39,0,0,1,.82,9.92c-1.49,4.22-4.11,6.48-7.43,6.68-2.14.14-15.9.4-21.7.51a2.61,2.61,0,0,0-2.57,2.62v.11a2.62,2.62,0,0,0,2.66,2.62c6-.07,20.14-.24,22.46-.2,5.56.1,10.42-7.34,11.37-9.56C107.91,52.42,107.91,45.23,106,41.68Z"/></g></g></svg>