<svg xmlns="http://www.w3.org/2000/svg" viewBox="0 0 111.48 68.73"><defs><style>.cls-1,.cls-2{fill:#f9ed32;stroke:#f9ed32;stroke-miterlimit:10;}.cls-1{stroke-width:0.41px;}.cls-2{stroke-width:0.39px;}</style></defs><title>Logo2</title><g id="Layer_2" data-name="Layer 2"><g id="Layer_2-2" data-name="Layer 2"><path class="cls-1" d="M68.4,67.39c-4.79-9.76-31-66.83-31-66.83-.08.27-37.07,68-37.07,68H37.48l-.14-29.6c.18-1-13.78,25-13.78,25l-12.92-.15L37.34,14S62.29,67.69,62.44,67.8Z"/><path class="cls-2" d="M109.82,42c-2.56-4.77-4.12-6.38-9.31-8.64,1.77-1.48,3.57-6.14,4-9,.47-3.31,0-9.46-3.57-13.85-3.3-4.07-9-7.15-17.48-7-10.58.17-25.71,0-36.29.16l.2,5.7s35.89-1,39.69-.05c4.25,1.1,6.22,1.93,8.95,4.35,1.23,1.1,3.22,5.68,3,8.5a11.49,11.49,0,0,1-6,9.6l-32.08.55v5.48s34.08.06,34.69,0c2.93-.31,7.68,3.65,8.94,6a13.39,13.39,0,0,1,.82,9.92c-1.49,4.21-4.11,6.48-7.43,6.68-2.72.17-24.27.55-24.27.55v5.35S95.8,66,98.76,66.1c5.56.1,10.42-7.34,11.36-9.57C111.72,52.78,111.72,45.58,109.82,42Z"/></g></g></svg>